<svg width="45" height="74" viewBox="0 0 45 74" fill="none" xmlns="http://www.w3.org/2000/svg">
<circle cx="22.5" cy="22.5" r="22.5" fill="#DBF5FE"/>
<path d="M36.9095 25.144C36.6972 22.761 36.3475 22.2968 36.2154 22.1223C35.9117 21.7189 35.4258 21.4553 34.9116 21.1787C34.8825 21.1634 34.8574 21.1414 34.8382 21.1147C34.8191 21.088 34.8064 21.0571 34.8012 21.0247C34.796 20.9922 34.7984 20.9589 34.8082 20.9275C34.8181 20.8961 34.8351 20.8675 34.8579 20.8438C34.9531 20.7472 35.0263 20.6312 35.0724 20.5036C35.1185 20.376 35.1365 20.24 35.125 20.1049C35.1029 19.8652 34.9914 19.6426 34.8128 19.4813C34.6342 19.32 34.4015 19.2316 34.1608 19.2339H33.2409C33.2015 19.2341 33.1621 19.2366 33.1229 19.2415C33.0961 19.2299 33.0683 19.2206 33.0398 19.2138C32.4949 18.0621 31.7489 16.4852 30.2027 15.7156C27.9093 14.5751 23.6845 14.5161 22.8589 14.5161C22.0333 14.5161 17.8086 14.5751 15.5181 15.7138C13.9719 16.4834 13.2259 18.0603 12.681 19.212L12.6762 19.2215C12.6491 19.2253 12.6224 19.232 12.5966 19.2415C12.5575 19.2366 12.5181 19.2341 12.4787 19.2339H11.557C11.3163 19.2316 11.0836 19.32 10.905 19.4813C10.7264 19.6426 10.615 19.8652 10.5928 20.1049C10.5823 20.2397 10.6011 20.3752 10.6478 20.5021C10.6945 20.629 10.7681 20.7444 10.8635 20.8402C10.8863 20.8639 10.9033 20.8926 10.9131 20.924C10.923 20.9554 10.9254 20.9886 10.9202 21.0211C10.915 21.0536 10.9023 21.0844 10.8831 21.1112C10.864 21.1379 10.8389 21.1598 10.8098 21.1752C10.2956 21.4536 9.80727 21.7172 9.50593 22.1188C9.37383 22.2957 9.02472 22.7574 8.81183 25.1405C8.69389 26.4815 8.67619 27.8697 8.76878 28.7637C8.9628 30.6213 9.32665 31.7441 9.34199 31.7907C9.39782 31.9603 9.5006 32.1105 9.63838 32.2239C9.77617 32.3374 9.94332 32.4095 10.1204 32.4317V32.4435C10.1204 32.6938 10.2198 32.9338 10.3968 33.1107C10.5737 33.2877 10.8137 33.3871 11.064 33.3871H14.3664C14.6166 33.3871 14.8566 33.2877 15.0336 33.1107C15.2105 32.9338 15.3099 32.6938 15.3099 32.4435C15.8177 32.4435 16.1709 32.3527 16.5454 32.256C17.086 32.1103 17.6386 32.0134 18.1966 31.9665C19.9958 31.7948 21.785 31.7359 22.8589 31.7359C23.911 31.7359 25.7792 31.7948 27.5814 31.9665C28.1415 32.0135 28.6963 32.1108 29.2391 32.2572C29.5976 32.3492 29.9379 32.4341 30.4091 32.4429C30.4091 32.6932 30.5085 32.9332 30.6854 33.1101C30.8624 33.2871 31.1024 33.3865 31.3526 33.3865H34.655C34.9053 33.3865 35.1453 33.2871 35.3222 33.1101C35.4992 32.9332 35.5986 32.6932 35.5986 32.4429V32.4359C35.7761 32.414 35.9437 32.3421 36.082 32.2286C36.2202 32.1152 36.3234 31.9647 36.3794 31.7948C36.3947 31.7483 36.7586 30.6254 36.9526 28.7678C37.0452 27.8732 37.0286 26.4874 36.9095 25.144ZM14.3864 20.0188C14.8582 19.0162 15.3978 17.8816 16.3584 17.4034C17.7466 16.7122 20.6239 16.4009 22.8589 16.4009C25.0939 16.4009 27.9712 16.7099 29.3594 17.4034C30.32 17.8816 30.8573 19.0168 31.3314 20.0188L31.3904 20.1467C31.4248 20.2196 31.4401 20.3001 31.4346 20.3805C31.4292 20.4609 31.4032 20.5386 31.3592 20.6061C31.3152 20.6736 31.2547 20.7288 31.1833 20.7663C31.1119 20.8037 31.0322 20.8223 30.9516 20.8202C28.992 20.7671 24.8639 20.5973 22.8589 20.5973C20.8539 20.5973 16.7258 20.7712 14.7633 20.8243C14.6827 20.8264 14.6029 20.8079 14.5316 20.7704C14.4602 20.7329 14.3996 20.6778 14.3556 20.6102C14.3116 20.5427 14.2857 20.465 14.2802 20.3846C14.2748 20.3042 14.29 20.2237 14.3245 20.1509C14.3452 20.1072 14.367 20.063 14.3864 20.0188ZM15.09 24.7147C14.0755 24.8368 13.0546 24.897 12.0329 24.8951C11.4078 24.8951 10.7632 24.7182 10.6435 24.1615C10.5615 23.7871 10.5704 23.5765 10.6146 23.3648C10.6517 23.185 10.7107 23.054 11.0056 23.008C11.7722 22.8901 12.2009 23.0381 13.4559 23.4079C14.2879 23.6526 14.8883 23.9787 15.2303 24.237C15.4019 24.3644 15.3105 24.697 15.09 24.7147ZM28.1451 29.5504C27.3691 29.6388 25.8169 29.6064 22.8766 29.6064C19.9363 29.6064 18.3847 29.6388 17.6086 29.5504C16.8078 29.4613 15.787 28.7041 16.4841 28.0295C16.9482 27.5848 18.0309 27.2522 19.4727 27.0653C20.9146 26.8784 21.525 26.7822 22.8707 26.7822C24.2164 26.7822 24.7649 26.8412 26.2687 27.0659C27.7724 27.2906 28.9088 27.6273 29.2573 28.0301C29.8931 28.7519 28.9454 29.4566 28.1451 29.5539V29.5504ZM35.0743 24.1609C34.9564 24.72 34.3077 24.8946 33.6849 24.8946C32.6436 24.8948 31.6032 24.8345 30.5689 24.7141C30.3884 24.697 30.3047 24.3803 30.4875 24.2364C30.8242 23.9716 31.431 23.652 32.262 23.4073C33.5169 23.0375 34.2405 22.8895 34.862 23.0128C35.0136 23.0428 35.0938 23.2056 35.1032 23.3076C35.1448 23.5917 35.135 23.8809 35.0743 24.1615V24.1609Z" fill="#0FBCF9"/>
<path d="M20.25 10.7859C20.2538 9.97151 19.4723 9.25069 19.2098 9.03137C19.1859 9.01112 19.1556 9 19.1243 9C19.0929 9 19.0626 9.01112 19.0388 9.03137C18.7748 9.24919 17.9963 9.95729 18 10.7852C18 11.4551 18.5048 12 19.125 12C19.7453 12 20.25 11.4551 20.25 10.7859ZM23.625 10.7859C23.6287 9.97151 22.8472 9.24994 22.5847 9.03137C22.5609 9.01112 22.5306 9 22.4992 9C22.4679 9 22.4376 9.01112 22.4138 9.03137C22.149 9.24919 21.3705 9.95804 21.3743 10.7859C21.375 11.4551 21.8798 12 22.5 12C23.1202 12 23.625 11.4551 23.625 10.7859ZM27 10.7859C27.0037 9.97151 26.2222 9.24994 25.9597 9.03137C25.9359 9.01112 25.9056 9 25.8742 9C25.8429 9 25.8126 9.01112 25.7887 9.03137C25.5247 9.24919 24.7462 9.95729 24.75 10.7852C24.75 11.4551 25.2547 12 25.875 12C26.4952 12 27 11.4551 27 10.7859Z" fill="#0FBCF9"/>
<circle cx="22.5" cy="51.5" r="22.5" fill="#DBF5FE"/>
<path d="M35.6694 49.4799C35.2261 48.8914 33.5791 48.4861 32.8823 47.4271C32.1856 46.368 31.6152 44.0745 29.8418 43.1932C28.0684 42.312 24.6789 42.0646 22.7434 42.0646C20.8079 42.0646 17.4208 42.3065 15.645 43.1914C13.8692 44.0763 13.3013 46.368 12.6045 47.4253C11.9077 48.4825 10.2608 48.8914 9.81742 49.4799C9.37407 50.0684 9.06197 53.7888 9.25189 55.613C9.44181 57.4372 9.79625 58.5162 9.79625 58.5162H14.9979C15.8495 58.5162 16.1265 58.1962 17.8684 58.0323C19.7797 57.8509 21.6547 57.7904 22.7434 57.7904C23.8321 57.7904 25.7676 57.8509 27.6777 58.0323C29.4196 58.1974 29.7057 58.5162 30.5483 58.5162H35.6894C35.6894 58.5162 36.0438 57.4372 36.2337 55.613C36.4237 53.7888 36.1104 50.0684 35.6694 49.4799Z" stroke="#0FBCF9" stroke-width="1.33333" stroke-linecap="round" stroke-linejoin="round"/>
<path d="M31.4534 58.5161H34.8405V59.4839H31.4534V58.5161Z" stroke="#0FBCF9" stroke-width="1.33333" stroke-linecap="round" stroke-linejoin="round"/>
<path d="M10.6464 58.5161H14.0335V59.4839H10.6464V58.5161Z" stroke="#0FBCF9" stroke-width="1.33333" stroke-linecap="round" stroke-linejoin="round"/>
<path d="M29.3042 53.9896C28.9467 53.5765 27.7818 53.2317 26.2395 53.0006C24.6971 52.7696 24.1346 52.7097 22.7556 52.7097C21.3766 52.7097 20.7494 52.8089 19.2711 53.0006C17.7929 53.1924 16.683 53.5335 16.207 53.9896C15.4927 54.6815 16.5391 55.4581 17.3605 55.5525C18.1564 55.6432 19.7478 55.6099 22.7623 55.6099C25.7768 55.6099 27.3681 55.6432 28.1641 55.5525C28.9842 55.4527 29.9556 54.7299 29.3042 53.9896Z" fill="#0FBCF9"/>
<path d="M33.3625 49.9909C33.3591 49.9429 33.3381 49.8978 33.3035 49.8643C33.2689 49.8308 33.2231 49.8113 33.175 49.8095C32.4607 49.7841 31.7355 49.8349 30.449 50.2141C29.7926 50.4057 29.1763 50.7143 28.6296 51.125C28.4917 51.2326 28.5407 51.5236 28.7137 51.5544C29.7741 51.6788 30.8408 51.7414 31.9084 51.7419C32.549 51.7419 33.2101 51.5605 33.3328 50.9895C33.3954 50.6603 33.4054 50.3232 33.3625 49.9909Z" fill="#0FBCF9"/>
<path d="M12.1241 49.9909C12.1275 49.9429 12.1485 49.8978 12.1831 49.8643C12.2177 49.8308 12.2634 49.8113 12.3116 49.8095C13.0259 49.7841 13.7511 49.8349 15.0376 50.2141C15.6939 50.4057 16.3103 50.7143 16.8569 51.125C16.9948 51.2326 16.9458 51.5236 16.7729 51.5544C15.7125 51.6788 14.6457 51.7414 13.5781 51.7419C12.9376 51.7419 12.2765 51.5605 12.1537 50.9895C12.0911 50.6603 12.0811 50.3232 12.1241 49.9909Z" fill="#0FBCF9"/>
<path d="M33.3888 46.9032H34.3565" stroke="#0FBCF9" stroke-width="1.33333" stroke-linecap="round" stroke-linejoin="round"/>
<path d="M11.1305 46.9032H12.0982" stroke="#0FBCF9" stroke-width="1.33333" stroke-linecap="round" stroke-linejoin="round"/>
<path d="M11.9771 48.0525C11.9771 48.0525 14.7805 47.3267 22.7432 47.3267C30.7059 47.3267 33.5093 48.0525 33.5093 48.0525" stroke="#0FBCF9" stroke-width="1.33333" stroke-linecap="round" stroke-linejoin="round"/>
</svg>
