<svg width="30" height="30" viewBox="0 0 30 30" fill="none" xmlns="http://www.w3.org/2000/svg">
<circle cx="15" cy="15" r="15" fill="#DBF5FE"/>
<path d="M7.5 15L9.16667 13.3333M9.16667 13.3333L15 7.5L20.8333 13.3333M9.16667 13.3333V21.6667C9.16667 21.8877 9.25446 22.0996 9.41074 22.2559C9.56702 22.4122 9.77899 22.5 10 22.5H12.5M20.8333 13.3333L22.5 15M20.8333 13.3333V21.6667C20.8333 21.8877 20.7455 22.0996 20.5893 22.2559C20.433 22.4122 20.221 22.5 20 22.5H17.5M12.5 22.5C12.721 22.5 12.933 22.4122 13.0893 22.2559C13.2455 22.0996 13.3333 21.8877 13.3333 21.6667V18.3333C13.3333 18.1123 13.4211 17.9004 13.5774 17.7441C13.7337 17.5878 13.9457 17.5 14.1667 17.5H15.8333C16.0543 17.5 16.2663 17.5878 16.4226 17.7441C16.5789 17.9004 16.6667 18.1123 16.6667 18.3333V21.6667C16.6667 21.8877 16.7545 22.0996 16.9107 22.2559C17.067 22.4122 17.279 22.5 17.5 22.5M12.5 22.5H17.5"
 stroke="#0FBCF9" stroke-width="1.66667" stroke-linecap="round" stroke-linejoin="round"/>
</svg>
