<svg width="19" height="19" viewBox="0 0 19 19" fill="none" xmlns="http://www.w3.org/2000/svg">
<path d="M17.3172 10.2937L16.0552 6.50927C15.8721 5.95828 15.52 5.47897 15.0488 5.13945C14.5777 4.79992 14.0115 4.61746 13.4307 4.61797H5.01932C4.43851 4.61746 3.8723 4.79992 3.40115 5.13945C2.93 5.47897 2.57788 5.95828 2.39481 6.50927L1.13283 10.2937C0.797317 10.4342 0.510799 10.6706 0.309254 10.9733C0.107708 11.276 0.000120536 11.6314 0 11.9951V14.7615C0 15.442 0.37269 16.0303 0.9225 16.3503V17.5279C0.9225 17.7724 1.01969 18.007 1.19269 18.1799C1.3657 18.3528 1.60034 18.45 1.845 18.45H2.7675C3.01216 18.45 3.2468 18.3528 3.41981 18.1799C3.59281 18.007 3.69 17.7724 3.69 17.5279V16.6057H14.76V17.5279C14.76 17.7724 14.8572 18.007 15.0302 18.1799C15.2032 18.3528 15.4378 18.45 15.6825 18.45H16.605C16.8497 18.45 17.0843 18.3528 17.2573 18.1799C17.4303 18.007 17.5275 17.7724 17.5275 17.5279V16.3503C17.8074 16.1899 18.04 15.9585 18.202 15.6796C18.3639 15.4006 18.4495 15.084 18.45 14.7615V11.9951C18.45 11.2288 17.9823 10.5731 17.3172 10.2937ZM5.01932 6.46224H13.4298C13.6234 6.4622 13.8122 6.52309 13.9694 6.6363C14.1265 6.74951 14.244 6.90929 14.3052 7.09298L15.3255 10.1508H3.12451L4.14387 7.09298C4.27025 6.71583 4.62265 6.46224 5.01932 6.46224V6.46224ZM3.22875 14.7615C3.04697 14.7614 2.86699 14.7256 2.69907 14.656C2.53115 14.5864 2.37859 14.4844 2.2501 14.3559C1.9906 14.0963 1.84488 13.7443 1.845 13.3773C1.84512 13.0104 1.99108 12.6585 2.25075 12.3991C2.51043 12.1397 2.86256 11.994 3.22967 11.9941C3.59679 11.9943 3.94882 12.1402 4.20832 12.3997C4.46783 12.6593 4.61354 13.0113 4.61342 13.3783C4.6133 13.7452 4.46735 14.0971 4.20767 14.3565C3.94799 14.6159 3.59587 14.7616 3.22875 14.7615V14.7615ZM15.2213 14.7615C14.8541 14.7613 14.5021 14.6154 14.2426 14.3559C13.9831 14.0963 13.8374 13.7443 13.8375 13.3773C13.8376 13.0104 13.9836 12.6585 14.2433 12.3991C14.5029 12.1397 14.8551 11.994 15.2222 11.9941C15.5893 11.9943 15.9413 12.1402 16.2008 12.3997C16.4603 12.6593 16.606 13.0113 16.6059 13.3783C16.6058 13.7452 16.4598 14.0971 16.2002 14.3565C15.9405 14.6159 15.5884 14.7616 15.2213 14.7615V14.7615ZM6.4575 2.20013C6.46211 1.19685 5.50087 0.308833 5.17799 0.0386471C5.14864 0.0136986 5.11136 0 5.07283 0C5.0343 0 4.99702 0.0136986 4.96766 0.0386471C4.64294 0.306988 3.68539 1.17933 3.69 2.19921C3.69 3.02452 4.31084 3.69584 5.07375 3.69584C5.83666 3.69584 6.4575 3.02452 6.4575 2.20013ZM10.6088 2.20013C10.6134 1.19685 9.65212 0.307911 9.32924 0.0386471C9.29989 0.0136986 9.26261 0 9.22408 0C9.18555 0 9.14827 0.0136986 9.11891 0.0386471C8.79327 0.306988 7.83571 1.18025 7.84033 2.20013C7.84125 3.02452 8.46209 3.69584 9.225 3.69584C9.98791 3.69584 10.6088 3.02452 10.6088 2.20013ZM14.76 2.20013C14.7646 1.19685 13.8034 0.307911 13.4805 0.0386471C13.4511 0.0136986 13.4139 0 13.3753 0C13.3368 0 13.2995 0.0136986 13.2702 0.0386471C12.9454 0.306988 11.9879 1.17933 11.9925 2.19921C11.9925 3.02452 12.6133 3.69584 13.3763 3.69584C14.1392 3.69584 14.76 3.02452 14.76 2.20013Z" fill="#C7EFFE"/>
</svg>
