<svg width="30" height="30" viewBox="0 0 30 30" fill="none" xmlns="http://www.w3.org/2000/svg">
<circle cx="15" cy="15" r="15" fill="#DBF5FE"/>
<path d="M23.3172 16.2937L22.0552 12.5093C21.8721 11.9583 21.52 11.479 21.0488 11.1394C20.5777 10.7999 20.0115 10.6175 19.4307 10.618H11.0193C10.4385 10.6175 9.8723 10.7999 9.40115 11.1394C8.93 11.479 8.57788 11.9583 8.39481 12.5093L7.13283 16.2937C6.79732 16.4342 6.5108 16.6706 6.30925 16.9733C6.10771 17.276 6.00012 17.6314 6 17.9951V20.7615C6 21.442 6.37269 22.0303 6.9225 22.3503V23.5279C6.9225 23.7724 7.01969 24.007 7.19269 24.1799C7.3657 24.3528 7.60034 24.45 7.845 24.45H8.7675C9.01216 24.45 9.2468 24.3528 9.41981 24.1799C9.59281 24.007 9.69 23.7724 9.69 23.5279V22.6057H20.76V23.5279C20.76 23.7724 20.8572 24.007 21.0302 24.1799C21.2032 24.3528 21.4378 24.45 21.6825 24.45H22.605C22.8497 24.45 23.0843 24.3528 23.2573 24.1799C23.4303 24.007 23.5275 23.7724 23.5275 23.5279V22.3503C23.8074 22.1899 24.04 21.9585 24.202 21.6796C24.3639 21.4006 24.4495 21.084 24.45 20.7615V17.9951C24.45 17.2288 23.9823 16.5731 23.3172 16.2937ZM11.0193 12.4622H19.4298C19.6234 12.4622 19.8122 12.5231 19.9694 12.6363C20.1265 12.7495 20.244 12.9093 20.3052 13.093L21.3255 16.1508H9.12451L10.1439 13.093C10.2703 12.7158 10.6226 12.4622 11.0193 12.4622V12.4622ZM9.22875 20.7615C9.04697 20.7614 8.86699 20.7256 8.69907 20.656C8.53115 20.5864 8.37859 20.4844 8.2501 20.3559C7.9906 20.0963 7.84488 19.7443 7.845 19.3773C7.84512 19.0104 7.99108 18.6585 8.25075 18.3991C8.51043 18.1397 8.86256 17.994 9.22967 17.9941C9.59679 17.9943 9.94882 18.1402 10.2083 18.3997C10.4678 18.6593 10.6135 19.0113 10.6134 19.3783C10.6133 19.7452 10.4673 20.0971 10.2077 20.3565C9.94799 20.6159 9.59587 20.7616 9.22875 20.7615V20.7615ZM21.2213 20.7615C20.8541 20.7613 20.5021 20.6154 20.2426 20.3559C19.9831 20.0963 19.8374 19.7443 19.8375 19.3773C19.8376 19.0104 19.9836 18.6585 20.2433 18.3991C20.5029 18.1397 20.8551 17.994 21.2222 17.9941C21.5893 17.9943 21.9413 18.1402 22.2008 18.3997C22.4603 18.6593 22.606 19.0113 22.6059 19.3783C22.6058 19.7452 22.4598 20.0971 22.2002 20.3565C21.9405 20.6159 21.5884 20.7616 21.2213 20.7615V20.7615ZM12.4575 8.20013C12.4621 7.19685 11.5009 6.30883 11.178 6.03865C11.1486 6.0137 11.1114 6 11.0728 6C11.0343 6 10.997 6.0137 10.9677 6.03865C10.6429 6.30699 9.68539 7.17933 9.69 8.19921C9.69 9.02452 10.3108 9.69584 11.0738 9.69584C11.8367 9.69584 12.4575 9.02452 12.4575 8.20013ZM16.6088 8.20013C16.6134 7.19685 15.6521 6.30791 15.3292 6.03865C15.2999 6.0137 15.2626 6 15.2241 6C15.1855 6 15.1483 6.0137 15.1189 6.03865C14.7933 6.30699 13.8357 7.18025 13.8403 8.20013C13.8412 9.02452 14.4621 9.69584 15.225 9.69584C15.9879 9.69584 16.6088 9.02452 16.6088 8.20013ZM20.76 8.20013C20.7646 7.19685 19.8034 6.30791 19.4805 6.03865C19.4511 6.0137 19.4139 6 19.3753 6C19.3368 6 19.2995 6.0137 19.2702 6.03865C18.9454 6.30699 17.9879 7.17933 17.9925 8.19921C17.9925 9.02452 18.6133 9.69584 19.3763 9.69584C20.1392 9.69584 20.76 9.02452 20.76 8.20013Z" fill="#0FBCF9"/>
</svg>
