<svg width="23" height="23" viewBox="0 0 23 23" fill="none" xmlns="http://www.w3.org/2000/svg">
<circle cx="11.5" cy="11.5" r="11.5" fill="#0FBCF9" fill-opacity="0.15"/>
<path d="M11.6651 7.64832C11.2842 7.64832 10.9119 7.77256 10.5952 8.00533C10.2785 8.23811 10.0316 8.56896 9.88585 8.95605C9.74009 9.34314 9.70195 9.76909 9.77626 10.18C9.85057 10.591 10.034 10.9684 10.3033 11.2647C10.5727 11.561 10.9158 11.7627 11.2894 11.8445C11.663 11.9262 12.0502 11.8842 12.4021 11.7239C12.754 11.5636 13.0548 11.292 13.2664 10.9437C13.478 10.5953 13.5909 10.1857 13.5909 9.76674C13.5904 9.20509 13.3873 8.66664 13.0262 8.26949C12.6652 7.87235 12.1757 7.64895 11.6651 7.64832ZM11.6651 10.8259C11.4746 10.8259 11.2885 10.7638 11.1301 10.6474C10.9718 10.531 10.8484 10.3656 10.7755 10.1721C10.7026 9.97853 10.6835 9.76556 10.7207 9.56009C10.7578 9.35463 10.8495 9.16589 10.9842 9.01776C11.1189 8.86963 11.2905 8.76875 11.4772 8.72788C11.664 8.68701 11.8576 8.70798 12.0336 8.78815C12.2095 8.86832 12.3599 9.00408 12.4657 9.17827C12.5715 9.35246 12.628 9.55724 12.628 9.76674C12.6277 10.0476 12.5262 10.3168 12.3457 10.5154C12.1651 10.7139 11.9204 10.8256 11.6651 10.8259Z" fill="#0FBCF9"/>
<path d="M15.478 5.77481C14.5352 4.82388 13.2766 4.25899 11.9453 4.18917C10.6139 4.11934 9.30411 4.54952 8.26866 5.39669C7.2332 6.24386 6.54549 7.44796 6.33827 8.7766C6.13104 10.1052 6.41898 11.4642 7.14652 12.5913L10.8953 18.3974C10.9788 18.5266 11.0928 18.6327 11.2272 18.7062C11.3616 18.7797 11.512 18.8182 11.6648 18.8182C11.8177 18.8182 11.9681 18.7797 12.1024 18.7062C12.2368 18.6327 12.3509 18.5266 12.4343 18.3974L16.1832 12.5913C16.8583 11.5458 17.1566 10.2979 17.0282 9.05691C16.8998 7.81589 16.3525 6.65711 15.478 5.77481ZM15.3519 12.0449L11.6648 17.7552L7.97772 12.0449C6.84911 10.2969 7.09117 7.95775 8.55328 6.4826C8.96189 6.07035 9.44699 5.74334 9.98087 5.52023C10.5148 5.29712 11.087 5.18229 11.6648 5.18229C12.2427 5.18229 12.8149 5.29712 13.3488 5.52023C13.8827 5.74334 14.3678 6.07035 14.7764 6.4826C16.2385 7.95775 16.4805 10.2969 15.3519 12.0449Z" fill="#0FBCF9"/>
</svg>
