<svg width="30" height="30" viewBox="0 0 30 30" fill="none" xmlns="http://www.w3.org/2000/svg">
<circle cx="15" cy="15" r="15" fill="#DBF5FE"/>
<path d="M15.7626 12.6374C15.8657 12.807 15.9214 13.0078 15.9214 13.2142L15 14.2429C14.8211 14.2429 14.6449 14.1846 14.4936 14.0734C14.342 13.962 14.2219 13.8022 14.1505 13.6125C14.079 13.4228 14.0602 13.2133 14.0967 13.0111C14.1333 12.8089 14.2233 12.6249 14.3534 12.4818C14.4833 12.3389 14.6471 12.2434 14.823 12.2049C14.9988 12.1665 15.1812 12.186 15.3478 12.262C15.5147 12.338 15.6596 12.4679 15.7626 12.6374ZM17.2928 13.2143V13.2142C17.2921 12.5539 17.0535 11.9183 16.6255 11.4475C16.197 10.9761 15.6129 10.7079 15.0002 10.7072L15 10.8572V10.7072C14.5431 10.7072 14.0979 10.8563 13.7206 11.1336C13.3436 11.4107 13.0517 11.803 12.8799 12.2594C12.708 12.7158 12.6632 13.2172 12.7507 13.7009C12.8381 14.1845 13.0543 14.6306 13.3738 14.982C13.6933 15.3335 14.1023 15.5748 14.5499 15.6727C14.9976 15.7707 15.4615 15.7202 15.8822 15.5285C16.3027 15.337 16.6597 15.0136 16.9099 14.6018C17.16 14.19 17.2928 13.7072 17.2928 13.2143ZM15.9214 13.2142C15.9211 13.4913 15.8208 13.7544 15.6462 13.9464C15.4722 14.1379 15.2394 14.2425 15 14.2429L15.9214 13.2142Z" fill="#0FBCF9" stroke="#0FBCF9" stroke-width="0.3"/>
<path d="M9.84626 16.4384L9.84627 16.4384L14.0175 22.8989L14.1338 22.8238L14.0175 22.8989C14.1238 23.0635 14.2693 23.1989 14.4408 23.2927C14.6124 23.3865 14.8045 23.4357 14.9997 23.4357C15.195 23.4357 15.3871 23.3865 15.5587 23.2927C15.7302 23.1989 15.8756 23.0635 15.982 22.8989L15.8741 22.8292L15.982 22.8989L20.1534 16.4384C20.9231 15.2464 21.2631 13.8238 21.1168 12.409C20.9704 10.9943 20.3464 9.67305 19.3491 8.6669L19.2426 8.7725L19.3491 8.66689C18.2739 7.58245 16.8385 6.93803 15.3197 6.85838C13.8008 6.77872 12.3068 7.26949 11.1259 8.23568C9.945 9.20183 9.16098 10.5748 8.92474 12.0894C8.68851 13.6041 9.01672 15.1534 9.84626 16.4384ZM18.9763 15.6678L14.9998 21.8264L11.0232 15.6678C9.80548 13.7819 10.0669 11.2569 11.6441 9.66564C12.0849 9.22093 12.6081 8.86824 13.1839 8.62763C13.7596 8.38703 14.3767 8.26321 14.9998 8.26321C15.6229 8.26321 16.2399 8.38703 16.8157 8.62763C17.3914 8.86824 17.9146 9.22093 18.3554 9.66564C19.9326 11.2569 20.194 13.7819 18.9763 15.6678Z" fill="#0FBCF9" stroke="#0FBCF9" stroke-width="0.3"/>
</svg>
